<svg xmlns="http://www.w3.org/2000/svg" viewBox="0 0 2163.2 1673.91"><defs><style>.cls-1{fill:#ac7088;}</style></defs><g id="Layer_2" data-name="Layer 2"><g id="Layer_1-2" data-name="Layer 1"><path class="cls-1" d="M627.56,0c20.74,21.7,35.24,49.81,37.36,83.06,3.38,52.92-20,122.14,17.7,149.22,11.73,8.42,26.1,8.77,39.74,8.88l116.14,1c43.49.36,88.85,1.26,127.49,25.44S1033.74,347,1020.15,397c-10.46,38.47-42.84,62.94-75.57,71.41S878,472.55,844.5,471.73a480.7,480.7,0,0,0-155.78,22.13c-37.18,11.68-78.5,34.39-87.56,79.57-6.29,31.41,5.12,66.81-6.81,95.72-12.16,29.44-43.35,38.91-70.51,37.67s-54.65-9.74-81.19-2.66c-56.8,15.13-84.78,91.6-130.2,135.56-70.2,67.94-171.19,50.46-259,73.42-18,4.7-35.69,11.22-53.4,17.62,16.69,9.4,31.21,20.65,41.57,33.88,29.58,37.75,74.05,60.83,122,62.3l239.38,7.34c124.6,3.82,251.34,7.4,371.67-25.15,128.13-34.66,254.48-110.22,384.37-82.9,57.2,12,109,43.77,151.56,83.8,103.26,97,154.41,246.55,132.2,386.49-6.64,41.84-18,89.48,8,122.9,15.28,19.63,40,28.86,62.83,38.65,73.29,31.35,140.61,58.64,196.14,115.84h453.48V640.68C1854.5,354.4,1305.89,125.15,627.56,0Z"/></g></g></svg>