<svg xmlns="http://www.w3.org/2000/svg" viewBox="0 0 2721.91 1061.26"><defs><style>.cls-1{fill:#ecccb3;}</style></defs><g id="Layer_2" data-name="Layer 2"><g id="Layer_1-2" data-name="Layer 1"><path class="cls-1" d="M749,208.5c-25,34.1-59.63,55.23-93.49,75.21C503.83,373.19,347.77,456.28,182.39,497c-46.67,11.48-95.76,20.43-134.53,53.91S-14.67,652,10.18,701.14c43.81,86.67,178,33.27,221.75,120Q213,876.67,194,932.21c117.51,24,227.92,105,349.73,124.31,194.77,30.9,379.19-98.48,575.76-114.37,83.27-6.73,166.66,7.15,249,21L1599,1001.85c32.69,5.49,69.52,16.36,99.36,33.17,17.71-6.4,35.43-12.92,53.4-17.62,87.86-23,188.85-5.48,259-73.42,45.42-44,73.41-120.43,130.2-135.56,26.55-7.08,54,1.43,81.19,2.66s58.36-8.23,70.51-37.67c11.94-28.91.52-64.31,6.81-95.72,9.06-45.18,50.39-67.89,87.56-79.57A480.74,480.74,0,0,1,2542.87,576c33.46.82,67.36,5.13,100.09-3.34s65.1-32.94,75.56-71.41c13.6-50-15.53-105.22-54.16-129.41s-84-25.08-127.49-25.44l-116.14-1c-13.64-.11-28-.46-39.74-8.88-37.72-27.08-14.32-96.3-17.7-149.23-2.12-33.24-16.61-61.35-37.36-83C1962.33,37.18,1561.48,0,1140.3,0Q929.18,0,725.5,12.18c16.44,22.89,36.88,42.33,46.9,70C787.52,123.92,774.05,174.41,749,208.5Z"/><path class="cls-1" d="M749,208.5c-25,34.1-59.63,55.23-93.49,75.21C503.83,373.19,347.77,456.28,182.39,497c-46.67,11.48-95.76,20.43-134.53,53.91S-14.67,652,10.18,701.14c43.81,86.67,178,33.27,221.75,120Q213,876.67,194,932.21c117.51,24,227.92,105,349.73,124.31,194.77,30.9,379.19-98.48,575.76-114.37,83.27-6.73,166.66,7.15,249,21L1599,1001.85c32.69,5.49,69.52,16.36,99.36,33.17,17.71-6.4,35.43-12.92,53.4-17.62,87.86-23,188.85-5.48,259-73.42,45.42-44,73.41-120.43,130.2-135.56,26.55-7.08,54,1.43,81.19,2.66s58.36-8.23,70.51-37.67c11.94-28.91.52-64.31,6.81-95.72,9.06-45.18,50.39-67.89,87.56-79.57A480.74,480.74,0,0,1,2542.87,576c33.46.82,67.36,5.13,100.09-3.34s65.1-32.94,75.56-71.41c13.6-50-15.53-105.22-54.16-129.41s-84-25.08-127.49-25.44l-116.14-1c-13.64-.11-28-.46-39.74-8.88-37.72-27.08-14.32-96.3-17.7-149.23-2.12-33.24-16.61-61.35-37.36-83C1962.33,37.18,1561.48,0,1140.3,0Q929.18,0,725.5,12.18c16.44,22.89,36.88,42.33,46.9,70C787.52,123.92,774.05,174.41,749,208.5Z"/></g></g></svg>