<svg xmlns="http://www.w3.org/2000/svg" viewBox="0 0 4664.82 853.34"><defs><style>.cls-1{fill:#deb6ab;}</style></defs><g id="Layer_2" data-name="Layer 2"><g id="Layer_1-2" data-name="Layer 1"><path class="cls-1" d="M4468.67,736.86c-22.87-9.79-47.54-19-62.83-38.65-26-33.42-14.63-81.06-8-122.9,22.21-139.94-28.94-289.47-132.2-386.49-42.61-40-94.36-71.76-151.56-83.8-129.89-27.32-256.24,48.24-384.37,82.9-120.33,32.55-247.07,29-371.67,25.15l-239.38-7.34c-47.94-1.47-92.41-24.55-122-62.3-10.37-13.23-24.88-24.48-41.57-33.88-29.84-16.81-66.67-27.68-99.37-33.17L2625.26,37.67c-82.38-13.84-165.78-27.72-249-21-196.57,15.89-381,145.27-575.77,114.37C1678.64,111.72,1568.24,30.73,1450.72,6.74c-30.84-6.3-62.16-8.69-94.31-5-22.47,2.59-45.6,8.72-62.24,24-32.67,30.11-28.63,81.43-36.81,125.09-21.69,115.67-135.75,186.64-238.93,243.24l-262.52,144c-86.49,47.45-190.59,95.72-279.25,52.43-24.8-12.11-46.23-30.77-72-40.66-34.3-13.15-72.81-9.38-108.46-.54C154.12,584.61,34.94,710.55,0,852.7l84.43.16c631.25,1.17,4580.39-.16,4580.39-.16C4609.29,795.51,4542,768.21,4468.67,736.86Z"/></g></g></svg>