<svg xmlns="http://www.w3.org/2000/svg" viewBox="0 0 2359.72 1765.99"><defs><style>.cls-1{fill:#f4e7c7;}</style></defs><g id="Layer_2" data-name="Layer 2"><g id="Layer_1-2" data-name="Layer 1"><path class="cls-1" d="M324.23,1766c34.94-142.16,154.12-268.09,296.19-303.35,35.65-8.85,74.17-12.61,108.46.54,25.78,9.88,47.21,28.55,72,40.66,88.66,43.29,192.75-5,279.25-52.43l262.51-144c103.19-56.6,217.25-127.56,238.94-243.24,8.18-43.66,4.13-95,36.81-125.08,16.63-15.33,39.76-21.46,62.23-24,32.16-3.7,63.48-1.32,94.32,5l37.94-111.09c-43.75-86.71-177.93-33.31-221.75-120-24.85-49.17-1.08-116.8,37.68-150.27s87.86-42.44,134.53-53.92C1928.73,444.1,2084.8,361,2236.5,271.52c33.87-20,68.48-41.11,93.49-75.2s38.5-84.58,23.37-126.34c-10-27.66-30.46-47.09-46.9-70C1279.44,60.83,418.87,344.31,0,732.76V1766Z"/></g></g></svg>